<svg height="200" width="200" xmlns="http://www.w3.org/2000/svg" viewBox="0 0 428.672 428.672" xml:space="preserve">
  <g stroke-width="0"/>
  <g stroke-linecap="round" stroke-linejoin="round"/>
  <path style="fill:#80d440" d="m284.22 260.336-16-60-112-144-76 176v80z"/>
  <path style="fill:#80d440" d="M121.02 195.536c-26-13.6-44.8-50.8-44.8-89.6 0-36.4 29.6-66.4 66.4-66.4 11.2 0 21.6 2.8 30.8 7.6"/>
  <path style="fill:#6ea62a" d="M121.02 203.536c-1.2 0-2.4-.4-3.6-.8-29.2-15.2-49.2-54.8-49.2-96.8 0-41.2 33.2-74.4 74.4-74.4 12 0 23.6 2.8 34.4 8.4 4 2 5.6 6.8 3.2 10.8s-6.8 5.6-10.8 3.2c-8.4-4.4-17.6-6.8-27.2-6.8-32.4 0-58.4 26-58.4 58.4.4 36 17.6 70.8 40.8 82.8 4 2 5.6 6.8 3.2 10.8-1.2 2.8-4 4.4-6.8 4.4"/>
  <path style="fill:#80d440" d="M104.62 189.936c-40 9.6-69.6 21.2-82.8 64.8l-13.2 46.8c-2 7.6 3.6 14.8 11.2 14.8h66"/>
  <path style="fill:#6ea62a" d="M85.82 324.336h-66c-6 0-11.6-2.8-15.6-7.6-3.6-4.8-5.2-11.2-3.6-17.2l13.2-46.8c14.8-49.2 48.8-60.8 88.8-70.4 4.4-1.2 8.8 1.6 9.6 6 1.2 4.4-1.6 8.8-6 9.6-42 10-65.6 22-76.8 59.2l-13.2 46.4c-.4 1.6.4 2.8.8 3.2s1.2 1.2 2.8 1.2h66c4.4 0 8 3.6 8 8s-3.6 8.4-8 8.4"/>
  <path style="fill:#80d440" d="M207.82 189.936c40 9.6 69.6 21.2 82.8 64.8l13.6 46.8c2 7.2-3.6 14.8-11.2 14.8h-66.4"/>
  <path style="fill:#6ea62a" d="M293.02 324.336h-66.4c-4.4 0-8-3.6-8-8s3.6-8 8-8h66.4c1.6 0 2.4-.8 2.8-1.6.4-.4 1.2-1.6.8-3.2l-13.6-46.8c-11.2-37.2-34.8-49.2-76.8-59.2-4.4-1.2-6.8-5.2-6-9.6 1.2-4.4 5.2-6.8 9.6-6 39.6 9.6 73.6 21.2 88.4 70.4l13.6 46.8c1.6 6 .4 12.4-3.2 17.2-4 5.2-9.6 8-15.6 8"/>
  <path style="fill:#f5e6c6" d="M169.02 90.736c0-45.6 36.8-82.4 82.4-82.4s82.4 36.8 82.4 82.4c0 60.4-36.8 118-82.4 118s-82.4-57.2-82.4-118"/>
  <path style="fill:#ff793b" d="M406.22 356.336c9.6 0 16.4-9.2 14-18.4l-17.2-58.4c-8.8-30.4-32.8-54-63.6-62l-5.2-1.2c-4.4-1.2-9.6.4-12.4 4-19.6 21.6-43.6 24-69.6 24-26.4 0-50.4-2.4-69.6-24.4-3.2-3.6-8-5.2-12.4-4l-4.8 1.2c-30.8 8-54.8 31.6-63.6 62l-16.8 58.4c-2.8 9.2 4.4 18.4 14 18.4z"/>
  <path style="fill:#c6490f" d="M406.22 364.336h-8v-.4H99.02c-7.2 0-14-3.6-18.4-9.2s-5.6-12.8-3.6-19.6l16.8-58.4c9.6-33.2 36-58.8 69.2-67.6l5.2-.8c7.2-2 15.2.4 20.4 6.4 17.6 20 40 21.6 63.6 21.6 23.2 0 45.6-1.6 63.6-21.2 4.8-6 13.2-8.4 20.4-6.4l4.8 1.2c33.2 8.8 60 34.4 69.6 67.6l17.2 58.4c2 7.2.4 14.4-4 20-4 5.2-10.8 8.4-17.6 8.4m-233.2-140.8h-.8l-4.8 1.2c-27.6 7.2-50 28.8-58 56.4l-16.8 58.4c-.8 2.8.4 4.4.8 5.6 1.2 1.6 3.2 2.8 5.2 2.8h309.6c1.6-.4 2.4-1.6 2.8-2 1.2-1.6 1.6-4 1.2-6l-17.2-58c-8-27.6-30.4-49.2-58-56.4l-4.8-1.2c-1.6-.4-3.6 0-4.4 1.2l-.4.4c-22 24.4-49.2 26.4-75.2 26.4-26.4 0-53.6-2-75.6-27.2-.8-.8-2.4-1.6-3.6-1.6"/>
  <path style="fill:#efdbb2" d="M333.02 79.536c-2.8 64.8-42.8 124.8-92 124.8 23.2-18.4 42.8-62.4 51.2-132 27.6 8.4 41.2 5.2 40.8 7.2"/>
  <path style="fill:#c89406" d="M251.42 216.736c-49.2 0-90.4-57.6-90.4-126 0-2.4 0-4.8.4-7.6.8-4.4 5.2-7.2 9.6-6.4s7.2 5.2 6.4 9.6c-.4 1.2-.4 2.8-.4 4.4 0 58.4 34.8 110 74.4 110s74.4-51.6 74.4-110c0-4.4-.4-8.8-1.2-12.4-.8-4.4 2-8.4 6.4-9.2s8.4 2 9.2 6.4q1.2 7.2 1.2 15.6c.4 66.8-42 125.6-90 125.6"/>
  <path style="fill:#ffc729" d="M169.02 84.736c3.2-42.8 38.8-76.4 82-76.4 40.8 0 74.4 29.6 81.2 68.4 0 0-34.8 4.4-50.4-18l-1.2 2.8c-12.8 25.6-53.6 38.8-105.6 27.2z"/>
  <path style="fill:#c89406" d="M211.42 101.136c-12 0-24.8-1.6-38.4-4.4l-1.2-.4-11.2-7.6.4-4.8c3.6-46.8 43.2-83.6 90-83.6 44 0 81.6 31.6 89.2 75.2l1.6 8.4-8.4 1.2c-1.2 0-30.4 3.6-49.6-12.4-14 18-40 28.4-72.4 28.4m-33.2-20c44.4 9.6 83.2 0 95.2-23.2l6.8-16 8.4 12c8.4 12 24 14.4 33.6 14.8-9.6-30.8-38-52.4-71.2-52.4-37.2 0-68.4 28-73.6 64.4z"/>
  <circle style="fill:#80d440" cx="256.22" cy="356.336" r="64"/>
  <path style="fill:#6ea62a" d="M256.22 428.336c-39.6 0-72-32.4-72-72s32.4-72 72-72 72 32.4 72 72-32.4 72-72 72m0-128c-30.8 0-56 25.2-56 56s25.2 56 56 56 56-25.2 56-56-25.2-56-56-56"/>
  <path style="fill:#fff" d="M256.22 400.336c-4.4 0-8-3.6-8-8v-72c0-4.4 3.6-8 8-8s8 3.6 8 8v72c0 4.4-3.6 8-8 8"/>
  <path style="fill:#fff" d="M292.22 364.336h-72c-4.4 0-8-3.6-8-8s3.6-8 8-8h72c4.4 0 8 3.6 8 8s-3.6 8-8 8"/>
</svg>
