<svg xmlns="http://www.w3.org/2000/svg" viewBox="0 0 512 512" xml:space="preserve">
  <g stroke-width="0"/>
  <g stroke-linecap="round" stroke-linejoin="round"/>
  <path style="fill:#00a8e1" d="M107.527 512H462.66c15.975 0 29.044-13.07 29.044-29.043V29.043C491.704 13.07 478.634 0 462.66 0H49.34C33.366 0 20.296 13.07 20.296 29.043v395.725z"/>
  <path style="fill:#0071ce" d="M107.527 512v-64.877c0-12.294-10.059-22.353-22.353-22.353H20.296z"/>
  <path style="fill:#0055b8" d="M87.223 51.838H424.77v46.839H87.223z"/>
  <path style="fill:#333e48" d="M167.516 352.569h131.55v46.839h-131.55zm257.252-191.012h-31.303a8.383 8.383 0 0 1-8.383-8.383 8.38 8.38 0 0 1 8.383-8.383h31.303a8.383 8.383 0 0 1 8.383 8.383 8.383 8.383 0 0 1-8.383 8.383m0 58.705h-31.303c-4.629 0-8.383-3.752-8.383-8.383s3.753-8.383 8.383-8.383h31.303c4.629 0 8.383 3.752 8.383 8.383s-3.754 8.383-8.383 8.383m0 58.707h-31.303a8.383 8.383 0 0 1-8.383-8.383 8.38 8.38 0 0 1 8.383-8.383h31.303a8.383 8.383 0 1 1 0 16.766M350.32 161.557H87.224a8.383 8.383 0 0 1-8.383-8.383 8.38 8.38 0 0 1 8.383-8.383h263.095a8.383 8.383 0 0 1 8.383 8.383 8.38 8.38 0 0 1-8.382 8.383m0 58.705H87.224c-4.629 0-8.383-3.752-8.383-8.383s3.753-8.383 8.383-8.383h263.095a8.383 8.383 0 0 1 8.383 8.383 8.38 8.38 0 0 1-8.382 8.383m0 58.707H87.224a8.383 8.383 0 0 1-8.383-8.383 8.38 8.38 0 0 1 8.383-8.383h263.095a8.383 8.383 0 0 1 8.383 8.383 8.38 8.38 0 0 1-8.382 8.383"/>
  <path style="fill:#fff" d="M388.476 340.901c4.135 0 7.419 3.277 7.419 7.416v1.995c7.7 1.142 14.55 3.425 20.682 6.848 2.708 1.569 5.132 4.276 5.132 8.557 0 5.421-4.28 9.556-9.7 9.556-1.712 0-3.421-.427-4.99-1.284-3.993-2.137-7.986-3.848-11.837-4.846v21.677c21.678 5.847 30.95 14.694 30.95 30.666 0 15.973-12.268 26.244-30.237 28.243v7.558a7.37 7.37 0 0 1-7.419 7.418c-4.138 0-7.416-3.28-7.416-7.418v-7.701c-10.127-1.284-19.686-4.85-28.098-9.984-2.996-1.856-4.853-4.709-4.853-8.558 0-5.564 4.281-9.701 9.843-9.701 1.856 0 3.853.715 5.564 1.856 5.99 3.849 11.696 6.56 18.257 7.988v-22.679c-20.541-5.564-30.668-13.408-30.668-30.382 0-15.69 11.981-26.245 29.954-28.102v-1.708c.002-4.139 3.28-7.415 7.417-7.415m-6.701 46.209v-19.255c-6.847.999-9.842 4.421-9.842 8.985-.001 4.422 1.996 7.419 9.842 10.27m13.406 24.964v19.823c6.7-.997 10.127-4.138 10.127-9.271 0-4.706-2.426-7.843-10.127-10.552"/>
</svg>
