<svg height="200" width="200" xmlns="http://www.w3.org/2000/svg" viewBox="0 0 512 512" xml:space="preserve">
  <g stroke-width="0"/>
  <g stroke-linecap="round" stroke-linejoin="round"/>
  <path style="fill:#ee2f2f" d="M256 512H81.04c-31.072 0-56.352-25.28-56.352-56.352v-6.44c0-31.072 25.28-56.352 56.352-56.352h93.384a8.05 8.05 0 0 1 8.05 8.05 8.05 8.05 0 0 1-8.05 8.05H81.04c-22.195 0-40.252 18.056-40.252 40.252v6.44c0 22.195 18.056 40.252 40.252 40.252H256a8.05 8.05 0 0 1 8.05 8.05A8.05 8.05 0 0 1 256 512m181.4-103.044h-97.677a8.05 8.05 0 0 1-8.05-8.05 8.05 8.05 0 0 1 8.05-8.05H437.4c22.195 0 40.252-18.056 40.252-40.252v-15.027c0-22.195-18.056-40.252-40.252-40.252h-31.128c-4.447 0-8.05-3.603-8.05-8.05s3.603-8.05 8.05-8.05H437.4c31.072 0 56.352 25.28 56.352 56.352v15.027c.001 31.072-25.28 56.352-56.352 56.352M105.727 297.325H74.6c-31.072 0-56.352-25.28-56.352-56.352v-12.88c0-31.072 25.28-56.352 56.352-56.352a8.05 8.05 0 0 1 8.05 8.05 8.05 8.05 0 0 1-8.05 8.05c-22.195 0-40.252 18.056-40.252 40.252v12.88c0 22.195 18.056 40.252 40.252 40.252h31.128c4.447 0 8.05 3.603 8.05 8.05s-3.604 8.05-8.051 8.05"/>
  <path style="fill:#458fde" d="M256 0C152.128 0 67.623 84.506 67.623 188.377c0 101.346 174.758 311.822 182.198 320.732a8.05 8.05 0 0 0 12.358 0c7.44-8.91 182.198-219.386 182.198-320.732C444.377 84.506 359.872 0 256 0"/>
  <path style="fill:#4f5aa8" d="M113.241 188.377c0-96.152 72.414-175.699 165.568-186.993A190 190 0 0 0 256 0C152.128 0 67.623 84.506 67.623 188.377c0 101.346 174.758 311.822 182.198 320.732a8.05 8.05 0 0 0 12.358 0c1.266-1.515 7.371-8.863 16.63-20.506-45.192-56.831-165.568-216.112-165.568-300.226"/>
  <circle style="fill:#aff078" cx="256" cy="188.377" r="139.539"/>
  <circle style="fill:#5ac779" cx="256" cy="188.377" r="113.778"/>
  <path style="fill:#ffd652" d="M350.457 115.925H161.543a8.05 8.05 0 0 0-8.05 8.05v137.392a8.05 8.05 0 0 0 8.05 8.05h188.914a8.05 8.05 0 0 0 8.05-8.05V123.975a8.05 8.05 0 0 0-8.05-8.05"/>
  <path style="fill:#fb9d46" d="M161.543 115.925a8.05 8.05 0 0 0-8.05 8.05v137.392a8.05 8.05 0 0 0 8.05 8.05h114.692l-93.39-153.493h-21.302z"/>
  <path style="fill:#f7edbc" d="M350.457 115.925h-42.398v153.493h42.398a8.05 8.05 0 0 0 8.05-8.05V123.975a8.05 8.05 0 0 0-8.05-8.05"/>
  <path style="fill:#ff7452" d="M210.918 115.925v60.109a8.05 8.05 0 0 0 8.05 8.05h26.834a8.05 8.05 0 0 0 8.05-8.05v-60.109z"/>
  <path style="fill:#ee2f2f" d="M281.761 222.189h-92.31a8.05 8.05 0 0 1-8.05-8.05 8.05 8.05 0 0 1 8.05-8.05h92.31a8.05 8.05 0 0 1 8.05 8.05 8.05 8.05 0 0 1-8.05 8.05m0 23.614h-92.31a8.05 8.05 0 0 1-8.05-8.05 8.05 8.05 0 0 1 8.05-8.05h92.31a8.05 8.05 0 0 1 8.05 8.05 8.05 8.05 0 0 1-8.05 8.05"/>
</svg>
